<?xml version="1.0" encoding="utf-8"?>
<svg version="1.1" xmlns:xlink="http://www.w3.org/1999/xlink" viewBox="0 0 18 17" xmlns="http://www.w3.org/2000/svg">
  <g transform="matrix(1 0 0 1 -542 -355 )">
    <path d="M 2.54100577943018 0.628984992897131  C 4.78918799524035 1.79869923874867  6.92394387857939 3.31751111754784  8.86559727618169 5.01739474482201  C 10.6853271251107 3.3141347209712  12.6943736109015 1.79146975973345  14.8133431722408 0.626342761674096  C 15.2006613873073 0.413373723586119  16.1471807004259 0.632620212645634  16.3282311077783 1.08822143941052  C 16.509281515132 1.54382266617449  16.4467381975137 2.40073244477571  16.0594199824482 2.61370148286187  C 14.0168185736579 3.73683703472489  12.050539235614 4.91353957481624  10.2054197405359 6.24746219900953  C 13.2254677931078 9.15254651690066  15.6785298591899 12.4361809286938  17.2158347150385 15.3628560340258  C 17.449069617378 15.8068816804516  17.0154886187715 16.3108391401092  16.7542100599521 15.8807988535  C 14.5779532573697 12.2988819011607  11.8655282799696 9.57912700120687  8.80445654434334 7.31134082362769  C 6.10782800516199 9.46563795274778  3.71587574960722 12.0421808948295  1.7845725817624 15.4015374391329  C 1.5450672361776 15.8181389667852  1.14761798745576 15.3299301777424  1.36141664793377 14.8997803327675  C 2.71946204461892 12.1674759509378  4.85711759225933 9.11401550708433  7.4882419468845 6.37711674152706  C 5.49846432752611 5.02249684806429  3.38059779405512 3.82455034921441  1.18164925920428 2.68045205992985  C 0.759120297313984 2.46061305287276  0.690891223549443 1.57606102334921  0.888400758844 1.10576298281831  C 1.0859102941381 0.635464942287399  2.11847681753989 0.409145985839132  2.54100577943018 0.628984992897131  Z " fill-rule="nonzero" stroke="none" fill="currentColor" transform="matrix(1 0 0 1 542 355 )" />
  </g>
</svg>