<?xml version="1.0" encoding="UTF-8"?>
<svg viewBox="0 0 19 17" version="1.1" xmlns="http://www.w3.org/2000/svg" xmlns:xlink="http://www.w3.org/1999/xlink">
    <title>icon-canvas</title>
    <g id="页面-1" stroke="none" stroke-width="1" fill="none" fill-rule="evenodd" >
        <g id="关系探索2.0-展开" transform="translate(-946.000000, -912.000000)" fill="currentColor">
            <g id="编组-6备份-5" transform="translate(701.748348, 908.922862)">
                <g id="编组-7" transform="translate(244.310132, 0.000000)">
                    <path d="M12.9509277,4.0178931 L17.9663086,9.80707767 L17.9663086,18.012522 C17.9647725,19.1164919 17.0702776,20.0116738 15.9663092,20.0140575 L2.00440694,20.024777 C0.899837764,20.0256251 0.00372004505,19.1308823 0.0028719929,18.0263132 L0.00287345855,18.0219105 L0.020086186,6.01502596 C0.0216680588,4.91157712 0.916634153,4.0178931 2.02008413,4.0178931 L12.9509277,4.0178931 Z M12.029541,5.0178931 L2.03052548,5.0178931 C1.47824073,5.0178931 1.03052548,5.46560835 1.03052548,6.0178931 L1.03052548,6.0178931 L1.03052548,17.9709336 C1.03052548,18.5217714 1.47598492,18.968885 2.02681894,18.9709268 L2.02681894,18.9709268 L15.9666304,19.0225956 L15.9666304,19.0225956 C16.5226217,19.0226025 16.9703369,18.5748873 16.9703369,18.0226025 L16.9703369,18.0226025 L16.9703369,10.0148413 L13.029541,10.0148413 C12.4772563,10.0148413 12.029541,9.56712609 12.029541,9.01484134 L12.029541,9.01484134 L12.029541,5.0178931 Z M6.58672715,11.5413837 C6.9451459,11.5996906 7.22364755,11.8849032 7.27340544,12.2446084 L7.67052058,14.7265781 C7.68966863,14.785331 7.74146381,14.8274146 7.80289229,14.8341301 C7.88388793,14.8577909 7.97123726,14.8319097 8.02626955,14.7679442 L9.68091601,12.4183463 C9.98432472,12.1403946 10.4090202,12.0373435 10.8060756,12.1453296 C11.1606894,12.2447149 11.4390076,12.5199058 11.5423933,12.8733741 L11.7244043,13.5269594 C11.76271,13.6442298 11.8603235,13.7323968 11.9808746,13.7586099 C12.1303897,13.8041777 12.2928285,13.7698156 12.4110826,13.6676044 L13.883718,12.3521604 C14.1185066,12.2142732 14.3005177,12.2363352 14.4297513,12.4183463 C14.5589849,12.6003574 14.5589849,12.7851262 14.4297513,12.9726528 L12.9653892,14.2880968 C12.6321436,14.5789013 12.1731956,14.6788083 11.749224,14.5528402 C11.3459713,14.4437721 11.0309689,14.1287697 10.9219008,13.725517 L10.7398897,13.0719316 C10.7075929,12.9967616 10.6441686,12.9393777 10.5661518,12.9147402 C10.47104,12.8842482 10.3671687,12.8995234 10.2848619,12.9561064 L8.7046746,15.1816058 C8.51693249,15.4645886 8.20039947,15.6352681 7.86080492,15.6366336 C7.77826976,15.6447111 7.69514311,15.6447111 7.61260795,15.6366336 C7.22307304,15.5615385 6.92216917,15.2507148 6.85974381,14.8589498 L6.46262867,12.3769801 C6.43636492,12.3649422 6.40616011,12.3649422 6.37989636,12.3769801 L6.28889079,12.4348927 L3.65800295,15.1816058 C3.40488107,15.3195994 3.20632349,15.3195994 3.06233023,15.1816058 C2.91833698,15.0436123 2.91833698,14.853328 3.06233023,14.6107528 L5.66012516,11.872313 C5.87360083,11.5847043 6.23935363,11.4540783 6.58672715,11.5413837 Z" id="icon-canvas"></path>
                </g>
            </g>
        </g>
    </g>
</svg>