<?xml version="1.0" encoding="utf-8"?>
<svg version="1.1" xmlns:xlink="http://www.w3.org/1999/xlink" viewBox="0 0 22 21" xmlns="http://www.w3.org/2000/svg">
  <g transform="matrix(1 0 0 1 -539 -311 )">
    <path d="M 20 15.0390625  L 12 15.0390625  C 10.8800000000001 15.0390625  10 14.1593041992191  10 13.0396118164063  L 10 9.04071044921875  C 10 7.92101806640585  10.8800000000001 7.041259765625  12 7.041259765625  L 20 7.041259765625  C 21.1199999999999 7.041259765625  22 7.92101806640585  22 9.04071044921875  L 22 13.0396118164063  C 22 14.1593041992191  21.1199999999999 15.0390625  20 15.0390625  Z M 4.69839645882166 11.0248722748638  L 3.93464791105089 11.5731127774643  L 3.99878514714283 18.9586306514639  L 2.44739645882191 19.012451171875  L 2.00402700057384 19.012451171875  L 0.00734154463998493 19.0124585671219  L 0.00734154463998493 20.98583984375  L 4.06244848270808 20.876271490436  C 4.06244848270808 20.876271490436  4.21005881457268 20.8662581096223  4.21005881457268 20.8662581096223  C 5.23275779556525 20.7547633062959  6.00895281031762 20.1151475734523  5.99868842862679 18.9468118854529  C 5.99868842862679 18.9468118854529  5.94539645882196 12.8919120292958  5.94539645882196 12.8919120292958  L 8.62072691769708 10.9937012164764  L 5.96139645882158 9.34996641382804  C 5.96139645882158 9.34996641382804  6.01129382454337 3.32260557365771  6.01129382454337 3.32260557365771  C 6.02132589298208 2.09388603046045  5.14485528312116 1.08572100804395  4.04737906560376 1.0636020831862  C 4.04737906560376 1.0636020831862  0.00734154463998493 0.982177734375  0.00734154463998493 0.982177734375  L 0.00734153895837153 3.06787109375  L 2.00539645882191 3.06787109375  L 2.44720871205209 3.07697873535199  L 4.01137735773182 3.10922294615739  L 3.95126582747571 10.5575017870196  L 4.69839645882166 11.0248722748638  Z M 12.0004736583655 9.98676304249966  L 12.0004736583655 12.0236893120309  C 12.0004736583655 12.5940286674995  12.440352808756 13.0421524467965  13.0001990001624 13.0421524467965  L 18.9985510509437 13.0421524467965  C 19.5583972423501 13.0421524467965  19.9982763927405 12.5940286674995  19.9982763927405 12.0236893120309  L 19.9982763927405 9.98676304249966  C 19.9982763927405 9.41642368703106  19.5583972423501 8.96829990773404  18.9985510509437 8.96829990773404  L 13.0001990001624 8.96829990773404  C 12.440352808756 8.96829990773404  12.0004736583655 9.41642368703106  12.0004736583655 9.98676304249966  Z " fill-rule="nonzero" fill="currentColor" stroke="none" transform="matrix(1 0 0 1 539 311 )" />
  </g>
</svg>