<?xml version="1.0" encoding="utf-8"?>
<svg version="1.1" xmlns:xlink="http://www.w3.org/1999/xlink" viewBox="0 0 24 21" xmlns="http://www.w3.org/2000/svg">
  <g transform="matrix(1 0 0 1 -539 -272 )">
    <path d="M 0 2.89379089585964  C 0 4.33407889177124  1.16758411432329 5.50166300609453  2.60787211023489 5.50166300609453  C 4.0481601061465 5.50166300609453  5.21574422046979 4.33407889177124  5.21574422046979 2.89379089585964  C 5.21574422046979 1.45350289994803  4.0481601061465 0.285918785624744  2.60787211023489 0.285918785624744  C 1.16758411432329 0.285918785624744  0 1.45350289994803  0 2.89379089585964  Z M 19.89453125 14.0025620243759  L 24 17.0040976733353  L 19.89453125 20.0056333222947  L 19.89453125 14.0025620243759  Z M 14.4795364608481 11.0105625885817  C 14.4795364608481 11.0105625885817  12.015699200299 11.0095869851475  12.0156991959857 11.0078596743642  C 11.3111888260119 11.0075807100238  10.4481236731112 11.0072389628876  10.4481236731112 11.0072389628876  C 9.05426161405558 11.0072389628876  7.92431315782414 12.1371874191191  7.92431315782414 13.5310494781743  C 7.92431315782414 14.8691570548672  8.96567365508736 15.964041855198  10.2821824375487 16.0494916671023  C 10.2821824375487 16.0494916671023  10.4481236731112 16.0548599934609  10.4481236731112 16.0548599934609  L 19.0192963196873 16.0558327926628  L 19.0192963196873 18.0801432904927  C 19.0192963196873 18.0801432904927  10.4481236731112 18.0791704912917  10.4481236731112 18.0791704912917  C 7.93626579718148 18.0791704912917  5.90000265999379 16.0429073541036  5.90000265999379 13.5310494781743  C 5.90000265999379 11.019191602245  7.93626579718148 8.98292846505683  10.4481236731112 8.98292846505683  C 10.4481236731112 8.98292846505683  12.9119609336603 8.98390406849103  12.9119659794292 8.98563138127065  C 13.6164754253195 8.98591034524543  14.4795364608481 8.9862520907509  14.4795364608481 8.9862520907509  C 15.8733985199037 8.9862520907509  17.0033469761352 7.85630363451946  17.0033469761352 6.46244157546425  C 17.0033469761352 5.12433399877136  15.9619864788719 4.02944919844049  14.6454776964106 3.94399938653714  C 14.6454776964106 3.94399938653714  14.4795364608481 3.93863106017761  14.4795364608481 3.93863106017761  L 5.90836381427289 3.9376582609757  L 5.90836381427289 1.91334776314579  C 5.90836381427289 1.91334776314579  14.4795364608481 1.9143205623468  14.4795364608481 1.9143205623468  C 16.9913943367778 1.9143205623468  19.0276574739655 3.95058369953495  19.0276574739655 6.46244157546425  C 19.0276574739655 8.97429945139447  16.9913943367778 11.0105625885817  14.4795364608481 11.0105625885817  Z M 1.30393605511745 2.82874230332982  C 1.30393605511745 2.10683519305803  1.88915739721233 1.52161385096315  2.61106450748412 1.52161385096315  C 3.3329716177559 1.52161385096315  3.91819295985078 2.10683519305803  3.91819295985078 2.82874230332982  C 3.91819295985078 3.5506494136016  3.3329716177559 4.13587075569649  2.61106450748412 4.13587075569649  C 1.88915739721233 4.13587075569649  1.30393605511745 3.5506494136016  1.30393605511745 2.82874230332982  Z " fill-rule="nonzero" fill="currentColor" stroke="none" transform="matrix(1 0 0 1 539 272 )" />
  </g>
</svg>