<?xml version="1.0" encoding="utf-8"?>
<svg version="1.1" xmlns:xlink="http://www.w3.org/1999/xlink" viewBox="0 0 21 21" xmlns="http://www.w3.org/2000/svg">
  <g transform="matrix(1 0 0 1 -577 -272 )">
    <path d="M 0 17.0056373368243  L 0 3.00565607129829  C 0.0257826186834791 1.3256583194343  1.34578261868364 0.00566008582791255  3.02578261868348 0  L 17.0257826186835 0  C 18.7057826186833 0.00566008582791255  20.0257826186835 1.3256583194343  20 3.00565607129829  L 20 17.0056373368243  C 20.0257826186835 18.6856350886883  18.7057826186833 20.0056333222947  17.0257826186835 20  L 3.02578261868348 20  C 1.34578261868364 20.0056333222947  0.0257826186834791 18.6856350886883  0 17.0056373368243  Z M 2 16.0437732820701  C 2.07778093180787 17.1653968172268  2.96002336344827 18.046672451992  4.08287736735474 18  L 16.113455980636 18  C 17.2363099845425 18.046672451992  18.1185524161829 17.1653968172268  18 16.0437732820701  L 18 4.02637826253886  C 18.1185524161829 2.90475472738217  17.2363099845425 2.02347909261698  16.113455980636 2  L 4.08287736735474 2  C 2.96002336344827 2.02347909261698  2.07778093180787 2.90475472738217  2 4.02637826253886  L 2 16.0437732820701  Z M 8.037802470918 7.99631844808573  L 6.03127214274537 7.99631844862142  L 6.03483166665001 7.01725350667948  L 8.03780290446412 7.012596622395  L 8.03780290446412 5.0423697069582  L 15.0615455802454 5.0423697069582  L 15.0615455802454 9.05015145589732  L 8.03780290446412 9.05015145589732  L 8.037802470918 7.99631844808573  Z M 15.0615455802454 11.0077320223045  L 15.0615455802454 15.0155137712436  L 8.03780290446412 15.0155137712436  L 8.03780290446412 11.0077320223045  L 15.0615455802454 11.0077320223045  Z M 6.03127214274537 7.01725350667948  L 6.03127214274537 7.99227255757614  L 6.03127214274537 12.9970003011285  L 5.05220720133912 12.9970003011285  L 5.05220720133912 7.01725350667948  L 6.03127214274537 7.01725350667948  Z M 14.0541603263391 8.08919748695553  L 14.0541603263391 6.01084481527323  L 9.02531953437483 6.01084481527323  L 9.02531953437483 8.08919748695553  L 14.0541603263391 8.08919748695553  Z M 8.03780290446412 7.012596622395  L 8.037802470918 7.99631844808573  L 8.03780290446412 7.012596622395  Z M 9.02531953437483 12.0179353597214  L 9.02531953437483 14.0170093660545  L 14.0541603263391 14.0170093660545  L 14.0541603263391 12.0179353597214  L 9.02531953437483 12.0179353597214  Z " fill-rule="nonzero" fill="currentColor" stroke="none" transform="matrix(1 0 0 1 577 272 )" />
  </g>
</svg>