<?xml version="1.0" encoding="utf-8"?>
<svg version="1.1" xmlns:xlink="http://www.w3.org/1999/xlink" viewBox="0 0 20 21" xmlns="http://www.w3.org/2000/svg">
  <g transform="matrix(1 0 0 1 -578 -235 )">
    <path d="M 19.0257826186835 14.0008392333984  L 19.0257826186835 18.0263214111328  C 19.0257826186835 19.1534564208987  18.1483786473295 20.0390625  17.0316826837875 20.0390625  L 9.05528294420446 20.0390625  C 7.93858698066242 20.0390625  7.06118300930848 19.1534564208987  7.06118300930848 18.0263214111328  L 7.06118300930848 14.0008392333984  C 7.06118300930848 12.8737042236326  7.93858698066242 11.9880981445313  9.05528294420446 11.9880981445313  L 17.0316826837875 11.9880981445313  C 18.1483786473295 11.9880981445313  19.0257826186835 12.8737042236326  19.0257826186835 14.0008392333984  Z M 19.0257826186835 6.07728576660156  C 19.0257826186835 7.20442077636744  18.1483786473295 8.09002685546875  17.0316826837875 8.09002685546875  L 9.05528294420446 8.09002685546875  C 7.93858698066242 8.09002685546875  7.06118300930848 7.20442077636744  7.06118300930848 6.07728576660156  L 7.06118300930848 2.05180358886719  C 7.06118300930848 0.924668579101308  7.93858698066242 0.0390625  9.05528294420446 0.0390625  L 17.0316826837875 0.0390625  C 18.1483786473295 0.0390625  19.0257826186835 0.924668579101308  19.0257826186835 2.05180358886719  L 19.0257826186835 6.07728576660156  Z M 0 17.047119140625  L 0 3.02685546875  L 7.06118300930848 3.02685546875  L 7.06118300930848 5.02685546875  L 2 5.02685546875  L 2 15.0693964843749  L 7.06118300930848 15.0703125  L 7.06118300930848 17.0703125  L 0 17.047119140625  Z M 17.0264540054022 15.0536193847656  C 17.0264540054022 14.4937731933596  16.5886024429024 14.0538940429688  16.0313368179022 14.0538940429688  L 10.0606336929022 14.0538940429688  C 9.5033680679021 14.0538940429688  9.06551650540223 14.4937731933596  9.06551650540223 15.0536193847656  L 9.06551650540223 17.0530700683594  C 9.06551650540223 17.6129162597654  9.5033680679021 18.0527954101563  10.0606336929022 18.0527954101563  L 16.0313368179022 18.0527954101563  C 16.5886024429024 18.0527954101563  17.0264540054022 17.6129162597654  17.0264540054022 17.0530700683594  L 17.0264540054022 15.0536193847656  Z M 10.0606336929022 2.1048583984375  C 9.5033680679021 2.1048583984375  9.06551650540223 2.54473754882838  9.06551650540223 3.10458374023438  L 9.06551650540223 5.10403442382813  C 9.06551650540223 5.66388061523412  9.5033680679021 6.103759765625  10.0606336929022 6.103759765625  L 16.0313368179022 6.103759765625  C 16.5886024429024 6.103759765625  17.0264540054022 5.66388061523412  17.0264540054022 5.10403442382813  L 17.0264540054022 3.10458374023438  C 17.0264540054022 2.54473754882838  16.5886024429024 2.1048583984375  16.0313368179022 2.1048583984375  L 10.0606336929022 2.1048583984375  Z " fill-rule="nonzero" fill="currentColor" stroke="none" transform="matrix(1 0 0 1 578 235 )" />
  </g>
</svg>