<?xml version="1.0" encoding="utf-8"?>
<svg version="1.1" xmlns:xlink="http://www.w3.org/1999/xlink" viewBox=" 0 0 24 9" xmlns="http://www.w3.org/2000/svg">
  <g transform="matrix(1 0 0 1 -539 -240 )">
    <path d="M 0 6.00258963448687  C 0 7.12452322823628  0.880891601562325 8.00604248046875  2.00202636718768 8.00604248046875  L 8.00810546874982 8.00604248046875  C 9.12924023437517 8.00604248046875  10.0101318359375 7.12452322823628  10.0101318359375 6.00258963448687  L 10.0101318359375 2.99741036551313  C 10.0101318359375 1.87547677176372  9.12924023437517 0.99395751953125  8.00810546874982 0.99395751953125  L 2.00202636718768 0.99395751953125  C 0.880891601562325 0.99395751953125  0 1.87547677176372  0 2.99741036551313  L 0 6.00258963448687  Z M 13.9898681640625 2.99741036551313  L 13.989868162545 3.60650634765625  L 14.994384765625 3.60650634765625  L 14.994384765625 5.6302490234375  L 13.9898681640625 5.63024042912821  L 13.9898681640625 6.00258963448687  C 13.9898681640625 7.12452322823628  14.8707597656248 8.00604248046875  15.9918945312502 8.00604248046875  L 21.9979736328123 8.00604248046875  C 23.1191083984377 8.00604248046875  24 7.12452322823628  24 6.00258963448687  L 24 2.99741036551313  C 24 1.87547677176372  23.1191083984377 0.99395751953125  21.9979736328123 0.99395751953125  L 15.9918945312502 0.99395751953125  C 14.8707597656248 0.99395751953125  13.9898681640625 1.87547677176372  13.9898681640625 2.99741036551313  Z M 2.06449890136719 2.03131103515625  L 7.97615051269531 2.03131103515625  C 8.52790466308579 2.03131103515625  8.96142578125 2.46784130859396  8.96142578125 3.02342529296857  L 8.96142578125 5.99976806640643  C 8.96142578125 6.55535205078104  8.52790466308579 6.99188232421875  7.97615051269531 6.99188232421875  L 2.06449890136719 6.99188232421875  C 1.51274475097671 6.99188232421875  1.0792236328125 6.55535205078104  1.0792236328125 5.99976806640643  L 1.0792236328125 3.02342529296857  C 1.0792236328125 2.46784130859396  1.51274475097671 2.03131103515625  2.06449890136719 2.03131103515625  Z M 13.9898681640625 5.63024902294092  L 13.9899322610399 3.60650634765625  L 10.0101318359375 3.60650634765625  L 10.0101318359375 5.6302490234375  L 13.9898681640625 5.63024902294092  Z " fill-rule="nonzero" fill="currentColor" stroke="none" transform="matrix(1 0 0 1 539 240 )" />
  </g>
</svg>