<?xml version="1.0" encoding="UTF-8"?>
<svg width="35px" height="49px" viewBox="0 0 35 49" version="1.1" xmlns="http://www.w3.org/2000/svg" xmlns:xlink="http://www.w3.org/1999/xlink">
    <!-- <title>icon-warning-instance-general<title> -->
    <g id="页面-1" stroke="none" stroke-width="1" fill="none" fill-rule="evenodd">
        <g id="自定义预设" transform="translate(-1313.000000, -466.000000)" fill="#FF5454">
            <path d="M1330.72032,466.377712 C1340.10916,466.377712 1347.72032,474.028167 1347.72032,483.465481 C1347.72032,489.183144 1344.92654,494.244918 1340.63629,497.346812 L1340.63629,497.384977 C1335.11459,500.785725 1331.39506,506.854234 1331.25294,513.806115 C1331.23799,514.092126 1331.00475,514.317396 1330.71916,514.317396 C1330.45096,514.317396 1330.22893,514.118723 1330.19077,513.859805 L1330.18704,513.81382 C1330.0521,507.133209 1326.61552,501.268995 1321.45082,497.801607 L1321.45068,497.791823 C1316.79681,494.743209 1313.72032,489.465477 1313.72032,483.465481 C1313.72032,474.028167 1321.33147,466.377712 1330.72032,466.377712 Z M1330.72032,476.253441 C1326.57818,476.253441 1323.22032,479.611305 1323.22032,483.753441 C1323.22032,487.895576 1326.57818,491.253441 1330.72032,491.253441 C1334.86245,491.253441 1338.22032,487.895576 1338.22032,483.753441 C1338.22032,479.611305 1334.86245,476.253441 1330.72032,476.253441 Z" id="icon-warning-instance-general"></path>
        </g>
    </g>
</svg>