<?xml version="1.0" encoding="UTF-8"?>
<svg width="138px" height="25px" viewBox="0 0 138 25" version="1.1" xmlns="http://www.w3.org/2000/svg" xmlns:xlink="http://www.w3.org/1999/xlink">
    <defs>
        <linearGradient x1="7.31480061%" y1="47.4971217%" x2="46.2714357%" y2="52.5028783%" id="linearGradient-1">
            <stop stop-color="#FF9E82" offset="0%"></stop>
            <stop stop-color="#F74F00" offset="100%"></stop>
        </linearGradient>
        <linearGradient x1="12.0545907%" y1="48.0504826%" x2="72.1467833%" y2="54.1999828%" id="linearGradient-2">
            <stop stop-color="#FC5F13" offset="0%"></stop>
            <stop stop-color="#A73700" offset="100%"></stop>
        </linearGradient>
        <linearGradient x1="89.7711623%" y1="50%" x2="10.8816453%" y2="50%" id="linearGradient-3">
            <stop stop-color="#FC5D0F" offset="0%"></stop>
            <stop stop-color="#FF9973" offset="100%"></stop>
        </linearGradient>
    </defs>
    <g id="-控件" stroke="none" stroke-width="1" fill="none" fill-rule="evenodd">
        <g id="PCS-警员（未反馈）" transform="translate(-60.000000, -140.000000)">
            <g id="反馈背景-未反馈" transform="translate(60.789837, 140.081543)">
                <path d="M17.879,19.9998333 L17.879,23.9998333 L3.15616242,24 C2.47864888,24 1.85422786,23.6338834 1.50281985,23.0414293 L1.42667218,22.9007549 L0,20 L17.879,19.9998333 Z" id="路径" fill="url(#linearGradient-1)"></path>
                <path d="M136.779,19.9933533 L136.779,23.9933533 L122.056162,23.99352 C121.378649,23.99352 120.754228,23.6274034 120.40282,23.0349492 L120.326672,22.8942749 L118.9,19.99352 L136.779,19.9933533 Z" id="路径备份" fill="url(#linearGradient-2)" transform="translate(127.839500, 21.993437) scale(-1, 1) translate(-127.839500, -21.993437) "></path>
                <path d="M12.949532,24 L12.949532,10 C12.949532,4.4771525 17.4266845,4.56724431e-15 22.949532,0 L112.949532,0 C118.47238,-1.01453063e-15 122.949532,4.4771525 122.949532,10 L122.949532,14 C122.949532,19.4993617 127.388688,23.9619031 132.879132,23.9997574 L122.949532,24 L12.949532,24 Z M12.949532,24 L3.01993235,23.9997574 C8.51037652,23.9619031 12.949532,19.4993617 12.949532,14 L12.949532,24 Z" id="形状结合备份" fill="url(#linearGradient-3)"></path>
            </g>
        </g>
    </g>
</svg>